<svg xmlns="http://www.w3.org/2000/svg" xmlns:xlink="http://www.w3.org/1999/xlink" width="500" zoomAndPan="magnify" viewBox="0 0 375 95.999999" height="128" preserveAspectRatio="xMidYMid meet" version="1.0"><defs><g/><clipPath id="8b29a0560b"><path d="M 0 0 L 109.542969 0 L 109.542969 96 L 0 96 Z M 0 0 " clip-rule="nonzero"/></clipPath><clipPath id="8bef918a06"><rect x="0" width="249" y="0" height="68"/></clipPath><clipPath id="33df5a4e8c"><rect x="0" width="122" y="0" height="56"/></clipPath><clipPath id="4628d13b49"><path d="M 28 10 L 32 10 L 32 33 L 28 33 Z M 28 10 " clip-rule="nonzero"/></clipPath><clipPath id="c66bd5010c"><rect x="0" width="32" y="0" height="49"/></clipPath></defs><g clip-path="url(#8b29a0560b)"><path fill="#ffffff" d="M 45.300781 112.796875 C 80.546875 112.796875 109.296875 84.042969 109.296875 48.796875 C 109.296875 13.550781 80.546875 -15.210938 45.300781 -15.210938 C 10.054688 -15.210938 -18.707031 13.542969 -18.707031 48.796875 C -18.707031 84.050781 10.046875 112.796875 45.300781 112.796875 Z M 45.300781 112.796875 " fill-opacity="1" fill-rule="evenodd"/></g><path fill="#499be8" d="M 2.6875 54.226562 L 9.183594 45.886719 L 2.691406 37.550781 C 2.367188 37.136719 2.324219 36.5625 2.59375 36.109375 C 2.824219 35.703125 3.253906 35.464844 3.707031 35.464844 C 3.773438 35.464844 3.828125 35.464844 3.886719 35.472656 L 14.351562 36.929688 L 18.324219 27.140625 C 18.523438 26.648438 19 26.328125 19.523438 26.328125 C 20.054688 26.328125 20.527344 26.648438 20.726562 27.140625 L 24.691406 36.929688 L 35.164062 35.472656 C 35.226562 35.464844 35.285156 35.464844 35.339844 35.464844 C 35.800781 35.464844 36.230469 35.703125 36.460938 36.109375 C 36.730469 36.5625 36.6875 37.136719 36.363281 37.550781 L 32.898438 42 C 32.726562 42.21875 32.484375 42.382812 32.210938 42.453125 L 25.550781 44.238281 C 19.46875 45.867188 14.285156 49.640625 10.957031 54.859375 C 10.753906 55.179688 10.417969 55.394531 10.046875 55.445312 L 3.886719 56.304688 C 3.828125 56.3125 3.765625 56.316406 3.710938 56.316406 C 3.253906 56.316406 2.824219 56.070312 2.585938 55.667969 C 2.324219 55.210938 2.367188 54.640625 2.6875 54.226562 Z M 16.957031 60.480469 C 22.433594 60.378906 27.542969 59 31.40625 56.5625 C 34.558594 54.570312 36.546875 52.082031 37.164062 49.414062 L 27.628906 51.972656 C 22.851562 53.25 19.078125 56.378906 16.957031 60.480469 Z M 18.230469 71.132812 C 18.230469 70.261719 16.929688 69.308594 15.070312 69.039062 L 15.070312 73.21875 C 16.929688 72.953125 18.230469 72 18.230469 71.132812 Z M 65.976562 6.539062 C 65.742188 6.152344 65.324219 5.910156 64.867188 5.910156 L 58.925781 5.910156 C 58.460938 5.910156 58.03125 6.15625 57.800781 6.554688 L 47.867188 23.765625 C 47.636719 24.164062 47.636719 24.65625 47.867188 25.0625 C 48.097656 25.460938 48.527344 25.707031 48.988281 25.707031 L 56.625 25.707031 L 53.003906 34.328125 C 52.765625 34.898438 52.960938 35.550781 53.46875 35.898438 C 53.6875 36.050781 53.945312 36.125 54.195312 36.125 C 54.527344 36.125 54.851562 36 55.101562 35.75 L 69.824219 21.359375 C 70.203125 20.996094 70.316406 20.433594 70.117188 19.945312 C 69.917969 19.457031 69.445312 19.140625 68.921875 19.140625 L 59.929688 19.140625 L 66.003906 7.820312 C 66.222656 7.414062 66.207031 6.933594 65.976562 6.539062 Z M 48.148438 91.675781 C 41.058594 91.675781 35.289062 85.90625 35.289062 78.808594 C 35.289062 71.714844 41.058594 65.949219 48.148438 65.949219 C 55.238281 65.949219 61.011719 71.71875 61.011719 78.808594 C 61.011719 85.898438 55.246094 91.675781 48.148438 91.675781 Z M 48.148438 86.667969 C 52.484375 86.667969 56.011719 83.148438 56.011719 78.808594 C 56.011719 74.46875 52.484375 70.949219 48.148438 70.949219 C 43.816406 70.949219 40.289062 74.476562 40.289062 78.808594 C 40.289062 83.144531 43.816406 86.667969 48.148438 86.667969 Z M 53.425781 78.808594 C 53.425781 75.90625 51.058594 73.535156 48.148438 73.535156 C 45.242188 73.535156 42.878906 75.90625 42.878906 78.808594 C 42.878906 81.710938 45.246094 84.082031 48.148438 84.082031 C 51.050781 84.082031 53.425781 81.71875 53.425781 78.808594 Z M 88.175781 29.5 C 77.574219 31.171875 67.957031 35.300781 58.835938 42.085938 C 56.625 43.734375 54.453125 44.785156 51.796875 45.496094 L 39.90625 48.679688 C 39.523438 52.527344 37.027344 56.070312 32.789062 58.746094 C 28.367188 61.539062 22.515625 63.078125 16.316406 63.078125 L 15.882812 63.078125 C 15.535156 64.15625 15.300781 65.28125 15.175781 66.441406 C 18.417969 66.808594 20.820312 68.738281 20.820312 71.132812 C 20.820312 73.550781 18.367188 75.496094 15.070312 75.832031 L 15.070312 76.9375 C 15.070312 77.253906 15.335938 77.515625 15.648438 77.515625 L 32.761719 77.515625 C 33.421875 69.601562 40.070312 63.359375 48.148438 63.359375 C 56.230469 63.359375 62.878906 69.601562 63.539062 77.515625 L 88.175781 77.515625 L 88.175781 50.804688 C 84.210938 50.960938 80.515625 51.039062 77.023438 51.039062 C 74.699219 51.039062 72.464844 51.003906 70.308594 50.933594 C 67.585938 50.851562 63.492188 50.675781 59.390625 50.160156 C 58.855469 50.09375 58.421875 49.703125 58.289062 49.183594 C 58.164062 48.660156 58.375 48.113281 58.820312 47.8125 C 59.066406 47.636719 59.316406 47.460938 59.558594 47.277344 C 68.476562 40.640625 77.847656 36.601562 88.175781 34.941406 Z M 88.175781 48.214844 L 88.175781 37.566406 C 79.179688 39.074219 70.925781 42.480469 63.0625 47.941406 C 65.863281 48.183594 68.472656 48.289062 70.386719 48.351562 C 75.761719 48.519531 81.589844 48.476562 88.175781 48.214844 Z M 88.175781 48.214844 " fill-opacity="1" fill-rule="nonzero"/><g transform="matrix(1, 0, 0, 1, 95, 6)"><g clip-path="url(#8bef918a06)"><g fill="#499be8" fill-opacity="1"><g transform="translate(0.734112, 45.820969)"><g><path d="M 22.0625 0 L 20.03125 -5.765625 L 8.234375 -5.765625 L 6.203125 0 L 1.375 0 L 11.484375 -28.234375 L 16.828125 -28.234375 L 26.9375 0 Z M 9.484375 -9.375 L 18.78125 -9.375 L 14.15625 -22.640625 Z M 9.484375 -9.375 "/></g></g></g><g fill="#499be8" fill-opacity="1"><g transform="translate(28.99836, 45.820969)"><g><path d="M 18.65625 -22.34375 L 23.28125 -22.34375 L 23.28125 0 L 18.65625 0 L 18.65625 -3.53125 C 17.195312 -0.957031 14.816406 0.328125 11.515625 0.328125 C 9.003906 0.328125 6.929688 -0.503906 5.296875 -2.171875 C 3.660156 -3.835938 2.84375 -6.171875 2.84375 -9.171875 L 2.84375 -22.34375 L 7.421875 -22.34375 L 7.421875 -9.859375 C 7.421875 -7.859375 7.921875 -6.320312 8.921875 -5.25 C 9.921875 -4.1875 11.285156 -3.65625 13.015625 -3.65625 C 14.742188 -3.65625 16.113281 -4.1875 17.125 -5.25 C 18.144531 -6.320312 18.65625 -7.859375 18.65625 -9.859375 Z M 18.65625 -22.34375 "/></g></g></g><g fill="#499be8" fill-opacity="1"><g transform="translate(55.316154, 45.820969)"><g><path d="M 13.875 -18.578125 L 8.4375 -18.578125 L 8.4375 -6.203125 C 8.4375 -5.367188 8.628906 -4.769531 9.015625 -4.40625 C 9.410156 -4.039062 10.082031 -3.859375 11.03125 -3.859375 L 13.875 -3.859375 L 13.875 0 L 10.21875 0 C 5.914062 0 3.765625 -2.066406 3.765625 -6.203125 L 3.765625 -18.578125 L 1.140625 -18.578125 L 1.140625 -22.34375 L 3.765625 -22.34375 L 3.765625 -27.90625 L 8.4375 -27.90625 L 8.4375 -22.34375 L 13.875 -22.34375 Z M 13.875 -18.578125 "/></g></g></g><g fill="#499be8" fill-opacity="1"><g transform="translate(70.40124, 45.820969)"><g><path d="M 17.5625 -5.546875 C 18.914062 -6.898438 19.59375 -8.78125 19.59375 -11.1875 C 19.59375 -13.601562 18.9375 -15.476562 17.625 -16.8125 C 16.3125 -18.15625 14.722656 -18.828125 12.859375 -18.828125 C 10.992188 -18.828125 9.425781 -18.15625 8.15625 -16.8125 C 6.882812 -15.476562 6.25 -13.597656 6.25 -11.171875 C 6.25 -8.753906 6.867188 -6.875 8.109375 -5.53125 C 9.359375 -4.195312 10.90625 -3.53125 12.75 -3.53125 C 14.601562 -3.53125 16.207031 -4.203125 17.5625 -5.546875 Z M 12.75 0.359375 C 9.5 0.359375 6.816406 -0.695312 4.703125 -2.8125 C 2.597656 -4.9375 1.546875 -7.722656 1.546875 -11.171875 C 1.546875 -14.617188 2.632812 -17.40625 4.8125 -19.53125 C 6.988281 -21.65625 9.695312 -22.71875 12.9375 -22.71875 C 16.1875 -22.71875 18.898438 -21.65625 21.078125 -19.53125 C 23.253906 -17.40625 24.34375 -14.625 24.34375 -11.1875 C 24.34375 -7.757812 23.222656 -4.976562 20.984375 -2.84375 C 18.753906 -0.707031 16.007812 0.359375 12.75 0.359375 Z M 12.75 0.359375 "/></g></g></g><g fill="#499be8" fill-opacity="1"><g transform="translate(96.272964, 45.820969)"><g><path d="M 2.03125 -15.9375 C 2.03125 -17.832031 2.828125 -19.4375 4.421875 -20.75 C 6.015625 -22.0625 8.109375 -22.71875 10.703125 -22.71875 C 13.304688 -22.71875 15.367188 -22.070312 16.890625 -20.78125 C 18.421875 -19.5 19.238281 -17.75 19.34375 -15.53125 L 14.609375 -15.53125 C 14.523438 -16.644531 14.132812 -17.507812 13.4375 -18.125 C 12.75 -18.75 11.785156 -19.0625 10.546875 -19.0625 C 9.304688 -19.0625 8.332031 -18.785156 7.625 -18.234375 C 6.925781 -17.679688 6.578125 -16.953125 6.578125 -16.046875 C 6.578125 -15.140625 7.019531 -14.425781 7.90625 -13.90625 C 8.800781 -13.394531 9.890625 -13.015625 11.171875 -12.765625 C 12.460938 -12.523438 13.75 -12.226562 15.03125 -11.875 C 16.3125 -11.53125 17.394531 -10.890625 18.28125 -9.953125 C 19.175781 -9.023438 19.625 -7.773438 19.625 -6.203125 C 19.625 -4.253906 18.804688 -2.671875 17.171875 -1.453125 C 15.535156 -0.242188 13.429688 0.359375 10.859375 0.359375 C 8.296875 0.359375 6.21875 -0.257812 4.625 -1.5 C 3.03125 -2.738281 2.148438 -4.507812 1.984375 -6.8125 L 6.78125 -6.8125 C 6.851562 -5.707031 7.253906 -4.84375 7.984375 -4.21875 C 8.722656 -3.59375 9.71875 -3.28125 10.96875 -3.28125 C 12.226562 -3.28125 13.226562 -3.554688 13.96875 -4.109375 C 14.71875 -4.671875 15.09375 -5.410156 15.09375 -6.328125 C 15.09375 -7.242188 14.644531 -7.957031 13.75 -8.46875 C 12.851562 -8.988281 11.765625 -9.375 10.484375 -9.625 C 9.203125 -9.882812 7.914062 -10.179688 6.625 -10.515625 C 5.34375 -10.859375 4.253906 -11.472656 3.359375 -12.359375 C 2.472656 -13.253906 2.03125 -14.445312 2.03125 -15.9375 Z M 2.03125 -15.9375 "/></g></g></g><g fill="#499be8" fill-opacity="1"><g transform="translate(117.927355, 45.820969)"><g><path d="M 12.453125 0.359375 C 9.203125 0.359375 6.5625 -0.691406 4.53125 -2.796875 C 2.507812 -4.910156 1.5 -7.703125 1.5 -11.171875 C 1.5 -14.648438 2.519531 -17.441406 4.5625 -19.546875 C 6.601562 -21.660156 9.234375 -22.71875 12.453125 -22.71875 C 15.160156 -22.71875 17.398438 -22.070312 19.171875 -20.78125 C 20.941406 -19.5 22.132812 -17.671875 22.75 -15.296875 L 17.765625 -15.296875 C 16.929688 -17.648438 15.160156 -18.828125 12.453125 -18.828125 C 10.554688 -18.828125 9.046875 -18.15625 7.921875 -16.8125 C 6.804688 -15.476562 6.25 -13.601562 6.25 -11.1875 C 6.25 -8.78125 6.804688 -6.898438 7.921875 -5.546875 C 9.046875 -4.203125 10.554688 -3.53125 12.453125 -3.53125 C 15.128906 -3.53125 16.898438 -4.707031 17.765625 -7.0625 L 22.75 -7.0625 C 22.101562 -4.789062 20.882812 -2.984375 19.09375 -1.640625 C 17.3125 -0.304688 15.097656 0.359375 12.453125 0.359375 Z M 12.453125 0.359375 "/></g></g></g><g fill="#499be8" fill-opacity="1"><g transform="translate(142.258132, 45.820969)"><g><path d="M 7.671875 -30.015625 L 7.671875 -18.828125 C 9.148438 -21.421875 11.53125 -22.71875 14.8125 -22.71875 C 17.320312 -22.71875 19.394531 -21.878906 21.03125 -20.203125 C 22.664062 -18.523438 23.484375 -16.1875 23.484375 -13.1875 L 23.484375 0 L 18.90625 0 L 18.90625 -12.5 C 18.90625 -14.5 18.40625 -16.03125 17.40625 -17.09375 C 16.40625 -18.164062 15.035156 -18.703125 13.296875 -18.703125 C 11.566406 -18.703125 10.195312 -18.164062 9.1875 -17.09375 C 8.175781 -16.03125 7.671875 -14.5 7.671875 -12.5 L 7.671875 0 L 3.046875 0 L 3.046875 -30.015625 Z M 7.671875 -30.015625 "/></g></g></g><g fill="#499be8" fill-opacity="1"><g transform="translate(168.575926, 45.820969)"><g><path d="M 17.78125 -5.703125 C 19.125 -7.066406 19.796875 -8.894531 19.796875 -11.1875 C 19.796875 -13.488281 19.125 -15.316406 17.78125 -16.671875 C 16.445312 -18.023438 14.859375 -18.703125 13.015625 -18.703125 C 11.179688 -18.703125 9.59375 -18.035156 8.25 -16.703125 C 6.914062 -15.378906 6.25 -13.566406 6.25 -11.265625 C 6.25 -8.972656 6.914062 -7.128906 8.25 -5.734375 C 9.59375 -4.347656 11.179688 -3.65625 13.015625 -3.65625 C 14.859375 -3.65625 16.445312 -4.335938 17.78125 -5.703125 Z M 12.046875 0.359375 C 9.066406 0.359375 6.5625 -0.726562 4.53125 -2.90625 C 2.507812 -5.082031 1.5 -7.863281 1.5 -11.25 C 1.5 -14.644531 2.503906 -17.40625 4.515625 -19.53125 C 6.535156 -21.65625 9.046875 -22.71875 12.046875 -22.71875 C 13.804688 -22.71875 15.351562 -22.316406 16.6875 -21.515625 C 18.03125 -20.722656 19.066406 -19.675781 19.796875 -18.375 L 19.796875 -22.34375 L 24.453125 -22.34375 L 24.453125 0 L 19.796875 0 L 19.796875 -4.171875 C 19.035156 -2.796875 17.992188 -1.695312 16.671875 -0.875 C 15.347656 -0.0507812 13.804688 0.359375 12.046875 0.359375 Z M 12.046875 0.359375 "/></g></g></g><g fill="#499be8" fill-opacity="1"><g transform="translate(196.069701, 45.820969)"><g><path d="M 17.78125 -5.703125 C 19.125 -7.066406 19.796875 -8.894531 19.796875 -11.1875 C 19.796875 -13.488281 19.125 -15.316406 17.78125 -16.671875 C 16.445312 -18.023438 14.859375 -18.703125 13.015625 -18.703125 C 11.179688 -18.703125 9.59375 -18.035156 8.25 -16.703125 C 6.914062 -15.378906 6.25 -13.566406 6.25 -11.265625 C 6.25 -8.972656 6.914062 -7.128906 8.25 -5.734375 C 9.59375 -4.347656 11.179688 -3.65625 13.015625 -3.65625 C 14.859375 -3.65625 16.445312 -4.335938 17.78125 -5.703125 Z M 12.046875 0.359375 C 9.066406 0.359375 6.5625 -0.726562 4.53125 -2.90625 C 2.507812 -5.082031 1.5 -7.863281 1.5 -11.25 C 1.5 -14.644531 2.503906 -17.40625 4.515625 -19.53125 C 6.535156 -21.65625 9.046875 -22.71875 12.046875 -22.71875 C 13.804688 -22.71875 15.351562 -22.316406 16.6875 -21.515625 C 18.03125 -20.722656 19.066406 -19.675781 19.796875 -18.375 L 19.796875 -30.015625 L 24.453125 -30.015625 L 24.453125 0 L 19.796875 0 L 19.796875 -4.171875 C 19.035156 -2.796875 17.992188 -1.695312 16.671875 -0.875 C 15.347656 -0.0507812 13.804688 0.359375 12.046875 0.359375 Z M 12.046875 0.359375 "/></g></g></g><g fill="#499be8" fill-opacity="1"><g transform="translate(223.563476, 45.820969)"><g><path d="M 12.453125 0.359375 C 9.203125 0.359375 6.5625 -0.691406 4.53125 -2.796875 C 2.507812 -4.910156 1.5 -7.707031 1.5 -11.1875 C 1.5 -14.675781 2.523438 -17.46875 4.578125 -19.5625 C 6.640625 -21.664062 9.296875 -22.71875 12.546875 -22.71875 C 15.804688 -22.71875 18.453125 -21.707031 20.484375 -19.6875 C 22.515625 -17.675781 23.53125 -15.046875 23.53125 -11.796875 C 23.53125 -11.015625 23.472656 -10.285156 23.359375 -9.609375 L 6.25 -9.609375 C 6.351562 -7.742188 6.976562 -6.265625 8.125 -5.171875 C 9.28125 -4.078125 10.722656 -3.53125 12.453125 -3.53125 C 14.960938 -3.53125 16.734375 -4.570312 17.765625 -6.65625 L 22.75 -6.65625 C 22.070312 -4.59375 20.84375 -2.90625 19.0625 -1.59375 C 17.28125 -0.289062 15.078125 0.359375 12.453125 0.359375 Z M 18.703125 -12.78125 C 18.671875 -14.613281 18.0625 -16.078125 16.875 -17.171875 C 15.6875 -18.273438 14.238281 -18.828125 12.53125 -18.828125 C 10.832031 -18.828125 9.40625 -18.273438 8.25 -17.171875 C 7.101562 -16.078125 6.445312 -14.613281 6.28125 -12.78125 Z M 18.703125 -12.78125 "/></g></g></g></g></g><g transform="matrix(1, 0, 0, 1, 95, 40)"><g clip-path="url(#33df5a4e8c)"><g fill="#499be8" fill-opacity="1"><g transform="translate(0.91483, 39.752009)"><g><path d="M 2.625 -24.078125 L 10.75 -24.078125 C 13.21875 -24.078125 15.109375 -23.476562 16.421875 -22.28125 C 17.734375 -21.082031 18.390625 -19.539062 18.390625 -17.65625 C 18.390625 -14.976562 16.851562 -13.234375 13.78125 -12.421875 C 15.320312 -12.171875 16.566406 -11.46875 17.515625 -10.3125 C 18.472656 -9.164062 18.953125 -7.773438 18.953125 -6.140625 C 18.953125 -4.515625 18.226562 -3.082031 16.78125 -1.84375 C 15.34375 -0.613281 13.460938 0 11.140625 0 L 2.625 0 Z M 5.0625 -22.09375 L 5.0625 -13.40625 L 10.75 -13.40625 C 12.375 -13.40625 13.640625 -13.796875 14.546875 -14.578125 C 15.460938 -15.359375 15.921875 -16.410156 15.921875 -17.734375 C 15.921875 -19.054688 15.460938 -20.113281 14.546875 -20.90625 C 13.640625 -21.695312 12.375 -22.09375 10.75 -22.09375 Z M 5.0625 -1.953125 L 11.09375 -1.953125 C 12.84375 -1.953125 14.191406 -2.367188 15.140625 -3.203125 C 16.097656 -4.046875 16.578125 -5.195312 16.578125 -6.65625 C 16.578125 -8.125 16.046875 -9.285156 14.984375 -10.140625 C 13.929688 -10.992188 12.53125 -11.421875 10.78125 -11.421875 L 5.0625 -11.421875 Z M 5.0625 -1.953125 "/></g></g></g><g fill="#499be8" fill-opacity="1"><g transform="translate(21.677383, 39.752009)"><g><path d="M 16.203125 -19.0625 L 18.640625 -19.0625 L 18.640625 0 L 16.203125 0 L 16.203125 -3.109375 C 14.921875 -0.804688 12.8125 0.34375 9.875 0.34375 C 7.757812 0.34375 5.988281 -0.347656 4.5625 -1.734375 C 3.144531 -3.117188 2.4375 -5.113281 2.4375 -7.71875 L 2.4375 -19.0625 L 4.859375 -19.0625 L 4.859375 -8.171875 C 4.859375 -6.078125 5.363281 -4.484375 6.375 -3.390625 C 7.382812 -2.296875 8.765625 -1.75 10.515625 -1.75 C 12.273438 -1.75 13.660156 -2.296875 14.671875 -3.390625 C 15.691406 -4.484375 16.203125 -6.078125 16.203125 -8.171875 Z M 16.203125 -19.0625 "/></g></g></g><g fill="#499be8" fill-opacity="1"><g transform="translate(42.928472, 39.752009)"><g><path d="M 5.0625 -19.0625 L 5.0625 -15.921875 C 6.101562 -18.242188 8.066406 -19.40625 10.953125 -19.40625 L 10.953125 -16.859375 L 10.265625 -16.859375 C 8.585938 -16.859375 7.300781 -16.40625 6.40625 -15.5 C 5.507812 -14.59375 5.0625 -13.035156 5.0625 -10.828125 L 5.0625 0 L 2.625 0 L 2.625 -19.0625 Z M 5.0625 -19.0625 "/></g></g></g><g fill="#499be8" fill-opacity="1"><g transform="translate(55.246428, 39.752009)"><g><path d="M 10.578125 0.34375 C 7.859375 0.34375 5.644531 -0.5625 3.9375 -2.375 C 2.238281 -4.1875 1.390625 -6.578125 1.390625 -9.546875 C 1.390625 -12.515625 2.253906 -14.898438 3.984375 -16.703125 C 5.722656 -18.503906 7.972656 -19.40625 10.734375 -19.40625 C 13.492188 -19.40625 15.6875 -18.554688 17.3125 -16.859375 C 18.9375 -15.160156 19.75 -13.054688 19.75 -10.546875 C 19.75 -9.867188 19.707031 -9.238281 19.625 -8.65625 L 3.90625 -8.65625 C 4 -6.46875 4.660156 -4.742188 5.890625 -3.484375 C 7.128906 -2.234375 8.691406 -1.609375 10.578125 -1.609375 C 12.046875 -1.609375 13.296875 -1.941406 14.328125 -2.609375 C 15.359375 -3.285156 16.070312 -4.171875 16.46875 -5.265625 L 19.09375 -5.265625 C 18.46875 -3.640625 17.441406 -2.296875 16.015625 -1.234375 C 14.597656 -0.179688 12.785156 0.34375 10.578125 0.34375 Z M 17.25 -10.578125 C 17.25 -12.671875 16.613281 -14.335938 15.34375 -15.578125 C 14.070312 -16.828125 12.5 -17.453125 10.625 -17.453125 C 8.75 -17.453125 7.1875 -16.835938 5.9375 -15.609375 C 4.695312 -14.390625 4.019531 -12.710938 3.90625 -10.578125 Z M 17.25 -10.578125 "/></g></g></g><g fill="#499be8" fill-opacity="1"><g transform="translate(76.357938, 39.752009)"><g><path d="M 15.96875 -3.890625 C 17.351562 -5.316406 18.046875 -7.191406 18.046875 -9.515625 C 18.046875 -11.847656 17.351562 -13.726562 15.96875 -15.15625 C 14.582031 -16.59375 12.910156 -17.3125 10.953125 -17.3125 C 9.003906 -17.3125 7.34375 -16.625 5.96875 -15.25 C 4.59375 -13.875 3.90625 -12.015625 3.90625 -9.671875 C 3.90625 -7.335938 4.597656 -5.429688 5.984375 -3.953125 C 7.367188 -2.484375 9.03125 -1.75 10.96875 -1.75 C 12.914062 -1.75 14.582031 -2.460938 15.96875 -3.890625 Z M 10.609375 0.34375 C 7.953125 0.34375 5.75 -0.597656 4 -2.484375 C 2.257812 -4.367188 1.390625 -6.769531 1.390625 -9.6875 C 1.390625 -12.601562 2.253906 -14.953125 3.984375 -16.734375 C 5.722656 -18.515625 7.929688 -19.40625 10.609375 -19.40625 C 12.328125 -19.40625 13.835938 -18.984375 15.140625 -18.140625 C 16.453125 -17.304688 17.421875 -16.226562 18.046875 -14.90625 L 18.046875 -19.0625 L 20.484375 -19.0625 L 20.484375 0 L 18.046875 0 L 18.046875 -4.1875 C 17.421875 -2.863281 16.453125 -1.773438 15.140625 -0.921875 C 13.835938 -0.078125 12.328125 0.34375 10.609375 0.34375 Z M 10.609375 0.34375 "/></g></g></g><g fill="#499be8" fill-opacity="1"><g transform="translate(99.458467, 39.752009)"><g><path d="M 16.203125 -19.0625 L 18.640625 -19.0625 L 18.640625 0 L 16.203125 0 L 16.203125 -3.109375 C 14.921875 -0.804688 12.8125 0.34375 9.875 0.34375 C 7.757812 0.34375 5.988281 -0.347656 4.5625 -1.734375 C 3.144531 -3.117188 2.4375 -5.113281 2.4375 -7.71875 L 2.4375 -19.0625 L 4.859375 -19.0625 L 4.859375 -8.171875 C 4.859375 -6.078125 5.363281 -4.484375 6.375 -3.390625 C 7.382812 -2.296875 8.765625 -1.75 10.515625 -1.75 C 12.273438 -1.75 13.660156 -2.296875 14.671875 -3.390625 C 15.691406 -4.484375 16.203125 -6.078125 16.203125 -8.171875 Z M 16.203125 -19.0625 "/></g></g></g></g></g><g transform="matrix(1, 0, 0, 1, 343, 34)"><g clip-path="url(#c66bd5010c)"><g fill="#499be8" fill-opacity="1"><g transform="translate(0.804519, 32.241584)"><g><path d="M 4.828125 -0.5625 C 4.441406 -0.1875 3.96875 0 3.40625 0 C 2.84375 0 2.367188 -0.191406 1.984375 -0.578125 C 1.609375 -0.972656 1.421875 -1.445312 1.421875 -2 C 1.421875 -2.550781 1.609375 -3.019531 1.984375 -3.40625 C 2.367188 -3.789062 2.84375 -3.984375 3.40625 -3.984375 C 3.96875 -3.984375 4.441406 -3.789062 4.828125 -3.40625 C 5.222656 -3.019531 5.421875 -2.546875 5.421875 -1.984375 C 5.421875 -1.421875 5.222656 -0.945312 4.828125 -0.5625 Z M 4.828125 -0.5625 "/></g></g></g><g fill="#499be8" fill-opacity="1"><g transform="translate(7.64857, 32.241584)"><g><path d="M 5.5 -16.046875 L 5.5 -13.515625 C 6.570312 -15.378906 8.28125 -16.3125 10.625 -16.3125 C 12.4375 -16.3125 13.925781 -15.707031 15.09375 -14.5 C 16.269531 -13.300781 16.859375 -11.625 16.859375 -9.46875 L 16.859375 0 L 13.578125 0 L 13.578125 -8.96875 C 13.578125 -10.40625 13.21875 -11.503906 12.5 -12.265625 C 11.78125 -13.035156 10.796875 -13.421875 9.546875 -13.421875 C 8.304688 -13.421875 7.320312 -13.035156 6.59375 -12.265625 C 5.863281 -11.503906 5.5 -10.40625 5.5 -8.96875 L 5.5 0 L 2.1875 0 L 2.1875 -16.046875 Z M 5.5 -16.046875 "/></g></g></g><g clip-path="url(#4628d13b49)"><g fill="#499be8" fill-opacity="1"><g transform="translate(26.549807, 32.241584)"><g><path d="M 2.1875 0 L 2.1875 -21.546875 L 5.5 -21.546875 L 5.5 0 Z M 2.1875 0 "/></g></g></g></g></g></g></svg>